<svg width="600" height="600" viewBox="0 0 600 600" fill="none" xmlns="http://www.w3.org/2000/svg">
<circle cx="300" cy="300" r="300" fill="#61DFEE"/>
<path d="M503.669 126.906L307.669 45.5289C302.759 43.4909 297.24 43.4899 292.331 45.5289L96.331 126.906C88.866 130.006 84 137.294 84 145.377V244.302C84 380.515 166.329 503.042 292.442 554.517C297.286 556.494 302.713 556.494 307.558 554.517C433.669 503.043 516 380.516 516 244.302V145.377C516 137.294 511.135 130.006 503.669 126.906V126.906ZM476 244.302C476 360.097 408 466.694 300 514.276C194.886 467.965 124 363.235 124 244.302V158.729L300 85.6549L476 158.729V244.302ZM277.894 311.716L363.858 225.753C371.668 217.943 384.331 217.942 392.142 225.753C399.953 233.564 399.952 246.227 392.141 254.037L292.036 354.142C284.224 361.954 271.561 361.951 263.752 354.142L207.858 298.248C200.047 290.437 200.047 277.774 207.858 269.964C215.669 262.154 228.332 262.153 236.142 269.964L277.894 311.716Z" fill="white"/>
</svg>
