<svg width="448" height="448" viewBox="0 0 448 448" fill="none" xmlns="http://www.w3.org/2000/svg">
<path d="M286.145 173.168L260.152 199.199C262.656 204.449 263.969 210.184 264 216C263.973 238.082 246.082 255.973 224 256C218.172 255.977 212.422 254.66 207.16 252.152L187.047 272.266C198.75 277.211 211.297 279.836 224 280C275.77 280 320.609 231.609 333.719 216C319.922 199.586 303.91 185.172 286.145 173.168V173.168Z" fill="#F9B41B"/>
<path d="M224 0C100.289 0 0 100.289 0 224C0 347.711 100.289 448 224 448C347.711 448 448 347.711 448 224C447.859 100.348 347.652 0.140625 224 0ZM350.398 220.801C348.113 223.871 293.48 296 224 296C206.973 295.762 190.199 291.828 174.84 284.473L133.656 325.656C130.516 328.688 125.527 328.645 122.441 325.559C119.355 322.473 119.312 317.484 122.344 314.344L160.07 276.609C136.113 261.844 114.961 242.949 97.6016 220.801C95.4648 217.957 95.4648 214.043 97.6016 211.199C99.8867 208.129 154.52 136 224 136C245.039 136.465 265.617 142.281 283.785 152.902L314.344 122.344C317.484 119.312 322.473 119.355 325.559 122.441C328.645 125.527 328.688 130.516 325.656 133.656L297.719 161.602C317.664 175.402 335.422 192.125 350.398 211.199C352.535 214.043 352.535 217.957 350.398 220.801V220.801Z" fill="#F9B41B"/>
<path d="M200 216C200.023 221.543 201.98 226.902 205.535 231.152L239.137 197.551C234.891 193.996 229.539 192.031 224 192C210.746 192 200 202.746 200 216Z" fill="#F9B41B"/>
<path d="M248 216C247.984 214.57 247.84 213.148 247.566 211.742L219.742 239.566C226.746 240.926 233.988 239.059 239.465 234.492C244.945 229.922 248.078 223.133 248 216Z" fill="#F9B41B"/>
<path d="M184 216C183.922 200.238 193.152 185.918 207.535 179.477C221.918 173.031 238.746 175.68 250.457 186.23L271.855 164.801C257.156 156.77 240.746 152.383 224 152C172.23 152 127.391 200.391 114.281 216C130.543 235.445 150.004 251.969 171.832 264.855L194.23 242.457C187.68 235.199 184.035 225.777 184 216V216Z" fill="#F9B41B"/>
</svg>
