<svg width="512" height="512" viewBox="0 0 512 512" fill="none" xmlns="http://www.w3.org/2000/svg">
<path d="M256 0C114.833 0 0 114.844 0 256C0 397.156 114.833 512 256 512C397.167 512 512 397.156 512 256C512 114.844 397.167 0 256 0ZM357.771 264.969L208.438 360.969C206.688 362.104 204.667 362.667 202.667 362.667C200.917 362.667 199.146 362.229 197.563 361.365C194.125 359.49 192 355.906 192 352V160C192 156.094 194.125 152.51 197.563 150.635C200.938 148.781 205.167 148.895 208.438 151.031L357.771 247.031C360.813 248.989 362.667 252.375 362.667 256C362.667 259.625 360.813 263.01 357.771 264.969Z" fill="#D91117"/>
</svg>
