<svg width="513" height="513" viewBox="0 0 513 513" fill="none" xmlns="http://www.w3.org/2000/svg">
<g clip-path="url(#clip0)">
<path d="M496.647 312.107L449.586 275.307C451.045 262.463 451.045 249.495 449.586 236.651L496.69 199.83C505.517 192.721 507.876 180.255 502.258 170.411L453.298 85.782C447.659 75.876 435.649 71.55 424.989 75.585L369.522 97.9C359.099 90.338 347.934 83.855 336.199 78.551L327.687 19.628C326.152 8.31601 316.447 -0.0919919 305.031 0.00100812H206.898C195.577 -0.0669919 185.95 8.24701 184.37 19.457L175.837 78.55C164.138 83.905 152.991 90.393 142.557 97.921L86.94 75.563C76.39 71.404 64.391 75.678 58.844 85.568L9.84101 170.347C4.07201 180.207 6.44701 192.81 15.409 199.894L62.47 236.694C60.997 249.537 60.997 262.507 62.47 275.35L15.366 312.15C6.52401 319.249 4.15401 331.722 9.77701 341.569L58.716 426.22C64.348 436.133 76.365 440.462 87.025 436.417L142.492 414.102C152.924 421.668 164.096 428.158 175.836 433.473L184.369 492.353C185.871 503.635 195.516 512.047 206.897 512.001H305.03C316.372 512.092 326.03 503.775 327.622 492.545L336.155 433.452C347.853 428.095 358.999 421.607 369.435 414.081L425.115 436.46C435.665 440.609 447.658 436.338 453.211 426.455L502.363 341.335C507.866 331.505 505.447 319.139 496.647 312.107ZM255.964 362.667C197.054 362.667 149.297 314.911 149.297 256C149.297 197.089 197.053 149.333 255.964 149.333C314.875 149.333 362.631 197.089 362.631 256C362.56 314.882 314.845 362.597 255.964 362.667Z" fill="#4E96EC"/>
</g>
<defs>
<clipPath id="clip0">
<rect width="512.002" height="512.002" fill="white"/>
</clipPath>
</defs>
</svg>
