<svg width="512" height="512" viewBox="0 0 512 512" fill="none" xmlns="http://www.w3.org/2000/svg">
<path d="M459.669 82.9061L263.669 1.52912C258.759 -0.508881 253.24 -0.509881 248.331 1.52912L52.331 82.9061C44.866 86.0061 40 93.2941 40 101.377V200.302C40 336.515 122.329 459.042 248.442 510.517C253.286 512.494 258.713 512.494 263.558 510.517C389.669 459.043 472 336.516 472 200.302V101.377C472 93.2941 467.135 86.0061 459.669 82.9061V82.9061ZM432 200.302C432 316.097 364 422.694 256 470.276C150.886 423.965 80 319.235 80 200.302V114.729L256 41.6551L432 114.729V200.302ZM233.894 267.716L319.858 181.753C327.668 173.943 340.331 173.942 348.142 181.753C355.953 189.564 355.952 202.227 348.141 210.037L248.036 310.142C240.224 317.954 227.561 317.951 219.752 310.142L163.858 254.248C156.047 246.437 156.047 233.774 163.858 225.964C171.669 218.154 184.332 218.153 192.142 225.964L233.894 267.716Z" fill="white"/>
</svg>
