<svg width="473" height="512" viewBox="0 0 473 512" fill="none" xmlns="http://www.w3.org/2000/svg">
<path d="M424.299 0H87.701C79.417 0 72.701 6.716 72.701 15V497C72.701 505.284 79.417 512 87.701 512H424.299C432.583 512 439.299 505.284 439.299 497V15C439.299 6.716 432.583 0 424.299 0ZM102.701 30H241V482H102.701V30ZM409.299 482H271V30H409.299V482Z" fill="#4E96EC"/>
<path d="M196 228.5C187.716 228.5 181 235.216 181 243.5V268.5C181 276.784 187.716 283.5 196 283.5C204.284 283.5 211 276.784 211 268.5V243.5C211 235.216 204.284 228.5 196 228.5Z" fill="#4E96EC"/>
<path d="M316 283.5C324.284 283.5 331 276.784 331 268.5V243.5C331 235.216 324.284 228.5 316 228.5C307.716 228.5 301 235.216 301 243.5V268.5C301 276.784 307.716 283.5 316 283.5Z" fill="#4E96EC"/>
</svg>
